<?xml version="1.0" encoding="UTF-8" standalone="no"?>
<svg
   id="Layer_1"
   data-name="Layer 1"
   viewBox="0 0 752.76562 101.97739"
   version="1.1"
   sodipodi:docname="prism-logo.svg"
   inkscape:version="1.4.2 (ebf0e94, 2025-05-08)"
   width="752.76562"
   height="101.97739"
   xmlns:inkscape="http://www.inkscape.org/namespaces/inkscape"
   xmlns:sodipodi="http://sodipodi.sourceforge.net/DTD/sodipodi-0.dtd"
   xmlns:xlink="http://www.w3.org/1999/xlink"
   xmlns="http://www.w3.org/2000/svg"
   xmlns:svg="http://www.w3.org/2000/svg">
  <sodipodi:namedview
     id="namedview23"
     pagecolor="#ffffff"
     bordercolor="#000000"
     borderopacity="0.25"
     inkscape:showpageshadow="2"
     inkscape:pageopacity="0.0"
     inkscape:pagecheckerboard="0"
     inkscape:deskcolor="#d1d1d1"
     inkscape:zoom="1.4259987"
     inkscape:cx="607.29369"
     inkscape:cy="-42.426407"
     inkscape:window-width="3840"
     inkscape:window-height="2054"
     inkscape:window-x="-11"
     inkscape:window-y="-11"
     inkscape:window-maximized="1"
     inkscape:current-layer="Layer_1" />
  <defs
     id="defs5">
    <style
       id="style1">
      .cls-1 {
        fill: url(#linear-gradient);
      }

      .cls-1, .cls-2, .cls-3, .cls-4, .cls-5, .cls-6, .cls-7 {
        stroke-width: 0px;
      }

      .cls-2 {
        fill: #f8f4ff;
      }

      .cls-3 {
        fill: #fff;
      }

      .cls-4 {
        fill: url(#linear-gradient-2);
      }

      .cls-5 {
        fill: #111523;
      }

      .cls-6 {
        fill: url(#linear-gradient-3);
      }

      .cls-7 {
        fill: url(#linear-gradient-4);
      }
    </style>
    <linearGradient
       id="linear-gradient"
       x1="792.72998"
       y1="492.75"
       x2="897.41998"
       y2="492.75"
       gradientUnits="userSpaceOnUse">
      <stop
         offset="0"
         stop-color="#6b46c1"
         id="stop1" />
      <stop
         offset=".25"
         stop-color="#8b5cf6"
         id="stop2" />
      <stop
         offset=".5"
         stop-color="#a855f7"
         id="stop3" />
      <stop
         offset=".75"
         stop-color="#f4a6cd"
         id="stop4" />
      <stop
         offset="1"
         stop-color="#f8bbd9"
         id="stop5" />
    </linearGradient>
    <linearGradient
       id="linear-gradient-2"
       x1="315.85999"
       y1="346.14001"
       x2="453.23001"
       y2="554"
       xlink:href="#linear-gradient" />
    <linearGradient
       id="linear-gradient-3"
       x1="241.34"
       y1="515.89001"
       x2="454.34"
       y2="515.89001"
       xlink:href="#linear-gradient" />
    <linearGradient
       id="linear-gradient-4"
       x1="255.78999"
       y1="545.81"
       x2="372.41"
       y2="351.92999"
       xlink:href="#linear-gradient" />
    <linearGradient
       inkscape:collect="always"
       xlink:href="#linear-gradient"
       id="linearGradient23"
       gradientUnits="userSpaceOnUse"
       x1="792.72998"
       y1="492.75"
       x2="897.41998"
       y2="492.75" />
  </defs>
  <g
     id="g11"
     transform="matrix(1.4912715,0,0,1.4912715,-600.28242,-561.75847)">
    <path
       class="cls-5"
       d="m 492.74,438.54 v -57.13 h 20.36 c 4.44,0 8.13,0.81 11.05,2.43 2.92,1.62 5.1,3.83 6.56,6.63 1.45,2.8 2.18,5.95 2.18,9.44 0,3.49 -0.73,6.67 -2.19,9.47 -1.46,2.8 -3.65,5.01 -6.58,6.64 -2.93,1.63 -6.61,2.44 -11.03,2.44 h -14 v -7.31 h 13.22 c 2.81,0 5.09,-0.49 6.83,-1.46 1.75,-0.98 3.03,-2.31 3.85,-4 0.82,-1.69 1.23,-3.62 1.23,-5.77 0,-2.15 -0.41,-4.07 -1.23,-5.75 -0.82,-1.68 -2.11,-2.98 -3.86,-3.93 -1.76,-0.95 -4.07,-1.42 -6.93,-1.42 h -10.82 v 49.74 h -8.62 z"
       id="path7" />
    <path
       class="cls-5"
       d="m 541.1,438.54 v -42.85 h 8.06 v 6.81 h 0.45 c 0.78,-2.31 2.16,-4.12 4.14,-5.45 1.98,-1.33 4.23,-1.99 6.74,-1.99 0.52,0 1.14,0.02 1.86,0.06 0.72,0.04 1.28,0.08 1.69,0.14 v 7.98 c -0.33,-0.09 -0.93,-0.2 -1.79,-0.32 -0.86,-0.12 -1.71,-0.18 -2.57,-0.18 -1.97,0 -3.72,0.41 -5.26,1.24 -1.54,0.83 -2.75,1.97 -3.64,3.43 -0.89,1.46 -1.34,3.12 -1.34,4.98 v 26.17 h -8.34 z"
       id="path8" />
    <path
       class="cls-5"
       d="m 576.06,389.09 c -1.45,0 -2.69,-0.49 -3.72,-1.47 -1.03,-0.98 -1.55,-2.14 -1.55,-3.5 0,-1.36 0.52,-2.55 1.55,-3.53 1.03,-0.98 2.27,-1.46 3.72,-1.46 1.45,0 2.69,0.49 3.72,1.46 1.03,0.98 1.55,2.15 1.55,3.53 0,1.38 -0.52,2.52 -1.55,3.5 -1.03,0.98 -2.27,1.47 -3.72,1.47 z m -4.21,49.45 v -42.85 h 8.34 v 42.85 z"
       id="path9" />
    <path
       class="cls-5"
       d="m 622.34,405.29 -7.56,1.34 c -0.32,-0.97 -0.81,-1.89 -1.49,-2.76 -0.68,-0.87 -1.59,-1.59 -2.75,-2.15 -1.15,-0.56 -2.59,-0.84 -4.32,-0.84 -2.36,0 -4.33,0.53 -5.91,1.58 -1.58,1.05 -2.37,2.4 -2.37,4.06 0,1.43 0.53,2.59 1.59,3.46 1.06,0.87 2.77,1.59 5.13,2.15 l 6.81,1.56 c 3.94,0.91 6.88,2.32 8.82,4.21 1.93,1.9 2.9,4.36 2.9,7.39 0,2.57 -0.74,4.85 -2.22,6.85 -1.48,2 -3.53,3.57 -6.17,4.7 -2.63,1.13 -5.68,1.7 -9.14,1.7 -4.8,0 -8.71,-1.03 -11.74,-3.08 -3.03,-2.05 -4.89,-4.98 -5.58,-8.77 l 8.06,-1.23 c 0.5,2.1 1.53,3.69 3.1,4.76 1.56,1.07 3.6,1.6 6.11,1.6 2.73,0 4.92,-0.57 6.56,-1.71 1.64,-1.14 2.45,-2.54 2.45,-4.2 0,-1.34 -0.5,-2.46 -1.49,-3.38 -1,-0.91 -2.52,-1.6 -4.56,-2.06 l -7.25,-1.59 c -4,-0.91 -6.95,-2.36 -8.86,-4.35 -1.91,-1.99 -2.86,-4.51 -2.86,-7.56 0,-2.53 0.71,-4.74 2.12,-6.64 1.41,-1.9 3.37,-3.38 5.86,-4.45 2.49,-1.07 5.35,-1.6 8.56,-1.6 4.63,0 8.28,1 10.94,3 2.66,2 4.42,4.67 5.27,8.02 z"
       id="path10" />
    <path
       class="cls-5"
       d="m 631.14,438.54 v -42.85 h 8.01 v 6.97 h 0.53 c 0.89,-2.36 2.35,-4.21 4.38,-5.54 2.03,-1.33 4.45,-1.99 7.28,-1.99 2.83,0 5.27,0.67 7.21,2.01 1.94,1.34 3.38,3.18 4.31,5.52 h 0.45 c 1.02,-2.29 2.65,-4.12 4.88,-5.48 2.23,-1.37 4.89,-2.05 7.98,-2.05 3.89,0 7.06,1.22 9.53,3.65 2.47,2.43 3.7,6.11 3.7,11.02 v 28.73 h -8.34 v -27.95 c 0,-2.9 -0.79,-5 -2.37,-6.3 -1.58,-1.3 -3.47,-1.95 -5.66,-1.95 -2.72,0 -4.83,0.83 -6.33,2.5 -1.51,1.66 -2.26,3.8 -2.26,6.4 v 27.31 h -8.31 v -28.48 c 0,-2.32 -0.73,-4.19 -2.18,-5.61 -1.45,-1.41 -3.34,-2.12 -5.66,-2.12 -1.58,0 -3.04,0.41 -4.36,1.24 -1.33,0.83 -2.4,1.98 -3.21,3.45 -0.81,1.47 -1.21,3.17 -1.21,5.1 v 26.42 h -8.34 z"
       id="path11" />
  </g>
  <g
     id="g23"
     transform="matrix(0.62945156,0,0,0.62945156,148.68095,-232.1292)">
    <g
       id="g6">
      <path
         class="cls-5"
         d="m 492.74,513.71 v -57.13 h 4.99 v 22.46 h 0.45 c 0.56,-1.28 1.36,-2.6 2.41,-3.96 1.05,-1.36 2.44,-2.5 4.16,-3.42 1.72,-0.92 3.89,-1.38 6.51,-1.38 3.51,0 6.6,0.92 9.26,2.78 2.66,1.85 4.73,4.44 6.22,7.75 1.49,3.32 2.23,7.18 2.23,11.59 0,4.41 -0.74,8.3 -2.22,11.63 -1.48,3.33 -3.54,5.92 -6.19,7.78 -2.65,1.86 -5.72,2.79 -9.22,2.79 -2.6,0 -4.77,-0.46 -6.51,-1.39 -1.74,-0.93 -3.14,-2.08 -4.2,-3.45 -1.06,-1.37 -1.88,-2.7 -2.45,-4 h -0.61 v 7.95 z m 4.91,-21.39 c 0,3.46 0.52,6.52 1.55,9.19 1.03,2.67 2.52,4.76 4.46,6.28 1.94,1.52 4.3,2.27 7.07,2.27 2.77,0 5.25,-0.79 7.22,-2.36 1.97,-1.57 3.47,-3.7 4.49,-6.37 1.02,-2.68 1.53,-5.68 1.53,-9.01 0,-3.33 -0.51,-6.26 -1.52,-8.9 -1.01,-2.64 -2.51,-4.74 -4.48,-6.29 -1.97,-1.55 -4.39,-2.33 -7.25,-2.33 -2.86,0 -5.16,0.75 -7.1,2.25 -1.94,1.5 -3.43,3.56 -4.45,6.19 -1.02,2.63 -1.53,5.66 -1.53,9.08 z"
         id="path5" />
      <path
         class="cls-5"
         d="m 540.99,530.78 c -0.99,0 -1.91,-0.09 -2.76,-0.28 -0.86,-0.19 -1.53,-0.39 -2.04,-0.61 l 1.34,-4.38 c 1.69,0.52 3.2,0.71 4.52,0.57 1.32,-0.14 2.49,-0.73 3.51,-1.78 1.02,-1.05 1.93,-2.66 2.73,-4.81 l 1.56,-4.35 -15.76,-43.27 h 5.38 l 12.72,36.29 h 0.39 l 12.72,-36.29 h 5.38 l -18.13,49.63 c -0.76,2.06 -1.7,3.79 -2.82,5.17 -1.12,1.39 -2.4,2.42 -3.86,3.1 -1.46,0.68 -3.09,1.02 -4.9,1.02 z"
         id="path6" />
    </g>
    <path
       class="cls-5"
       d="m 609.26,479.4 c 1.48,-4.96 5.82,-7.54 10.86,-7.54 5.04,0 9.1,2.42 11.27,7.09 2.75,-4.79 7.38,-7.09 12.83,-7.09 11.19,0 14.79,9.59 14.79,19.3 v 23.44 h -10.45 v -23.36 c 0,-4.75 -1.68,-9.55 -7.21,-9.55 -5.53,0 -7.21,4.96 -7.21,9.55 v 23.36 h -10.45 v -23.36 c 0,-4.71 -1.72,-9.55 -7.21,-9.55 -5.49,0 -7.21,4.96 -7.21,9.55 v 23.36 h -10.45 v -41.96 h 10.45 v 6.76 z"
       id="path12" />
    <path
       class="cls-5"
       d="m 667.45,455.84 h 10.49 v 11.51 h -10.49 z m 0,16.8 h 10.49 v 41.96 h -10.49 z"
       id="path13" />
    <path
       class="cls-5"
       d="m 697.16,479.44 c 1.97,-4.96 6.8,-7.46 11.97,-7.46 10.82,0 14.63,9.84 14.63,19.18 v 23.44 h -10.45 v -23.36 c 0,-5.2 -2.38,-9.59 -8.07,-9.59 -5.69,0 -8.07,4.43 -8.07,9.59 v 23.36 h -10.45 v -41.96 h 10.45 v 6.8 z"
       id="path14" />
    <path
       class="cls-5"
       d="m 749.73,514.6 c -11.76,0 -20.04,-10.33 -20.04,-21.64 0,-11.31 8.65,-21.8 20.12,-21.8 5.49,0 10,2.38 13.24,6.76 v -22.83 h 10.45 v 58.77 h -10.45 v -6.15 c -3.24,4.43 -7.79,6.88 -13.32,6.88 z m 2.09,-9.75 c 6.68,0 11.76,-5.29 11.76,-11.93 0,-6.64 -5.12,-12.01 -11.76,-12.01 -6.64,0 -11.68,5.45 -11.68,12.01 0,6.56 5,11.93 11.68,11.93 z"
       id="path15" />
    <path
       class="cls-5"
       d="m 782.39,455.84 h 10.45 v 58.77 h -10.45 z"
       id="path16" />
    <path
       class="cls-5"
       d="m 909.95,479.4 c 1.48,-4.96 5.82,-7.54 10.86,-7.54 5.04,0 9.1,2.42 11.27,7.09 2.75,-4.79 7.38,-7.09 12.83,-7.09 11.19,0 14.79,9.59 14.79,19.3 v 23.44 h -10.45 v -23.36 c 0,-4.75 -1.68,-9.55 -7.21,-9.55 -5.53,0 -7.21,4.96 -7.21,9.55 v 23.36 h -10.45 v -23.36 c 0,-4.71 -1.72,-9.55 -7.21,-9.55 -5.49,0 -7.21,4.96 -7.21,9.55 v 23.36 h -10.45 v -41.96 h 10.45 v 6.76 z"
       id="path17" />
    <path
       class="cls-1"
       d="m 892.94,492.73 v 0.08 c 0,8.46 -5.01,16.31 -12.77,19.74 -9.08,4.01 -19.57,1.43 -27.14,-4.54 -3.8,-3 -6.86,-6.79 -10.03,-10.42 -3.26,-3.74 -6.6,-7.47 -10.27,-10.8 -3.16,-2.86 -7.03,-5.85 -11.48,-5.98 -2.28,-0.06 -4.46,0.73 -6.31,2.02 -6.28,4.39 -6.78,14.48 -0.72,19.28 4.48,3.55 10.56,3.19 15.1,-0.05 1.04,-0.74 1.98,-1.61 2.81,-2.58 1.83,-2.15 5.16,-2.16 7.08,-0.09 l 0.09,0.09 c 1.52,1.63 1.72,4.11 0.43,5.92 -3.22,4.5 -8.15,7.68 -13.85,8.76 -7.92,1.63 -16.56,-1.38 -21.66,-7.65 -3.14,-3.86 -4.79,-8.74 -4.79,-13.7 v -0.08 c 0,-8.13 4.75,-15.7 11.96,-19.4 4.21,-2.16 9.12,-2.89 13.79,-2.14 4.71,0.75 8.71,3.12 12.22,6.29 0.92,0.83 1.8,1.7 2.66,2.59 4.1,4.21 7.46,9.02 11.27,13.49 5.44,6.38 14.59,13.59 23.57,10.41 7.79,-2.76 9.88,-13.25 4.57,-19.27 -3.66,-4.14 -9.51,-4.84 -14.38,-2.52 -2.39,1.14 -4.34,2.92 -5.8,5.05 -1.75,2.57 -5.56,2.6 -7.44,0.12 -0.02,-0.03 -0.04,-0.06 -0.07,-0.09 -1.1,-1.45 -1.29,-3.43 -0.4,-5.02 2.56,-4.56 6.8,-8.14 11.7,-9.96 2.73,-1.01 5.65,-1.49 8.56,-1.38 7.97,0.3 15.38,4.96 18.98,12.09 1.52,3.01 2.31,6.36 2.32,9.74 z"
       id="path18"
       style="fill:url(#linearGradient23)" />
  </g>
  <g
     id="g22"
     transform="matrix(0.4970905,0,0,0.4970905,-119.45101,-176.5566)">
    <path
       class="cls-3"
       d="m 454.52,541.59 c 0,0 -0.06,0.09 -0.09,0.14 -0.03,0.05 -0.05,0.09 -0.08,0.14 l -58.76,-40.16 c 0,0 -0.09,-0.06 -0.13,-0.08 -6.99,-4.77 -14.62,-8.43 -22.62,-10.9 -8.05,-2.5 -16.46,-3.78 -24.99,-3.78 -16.96,0 -33.54,5.1 -47.56,14.63 -0.06,0.04 -0.13,0.08 -0.18,0.13 l -58.76,40.17 c -0.03,-0.05 -0.06,-0.09 -0.09,-0.14 -0.03,-0.05 -0.05,-0.09 -0.08,-0.15 L 303,494.8 c 0,0 0.03,-0.03 0.04,-0.03 5.28,-4.01 10.17,-8.5 14.59,-13.41 4.43,-4.92 8.39,-10.26 11.82,-15.95 9.86,-16.33 15.07,-35.04 15.07,-54.11 v -54.72 c 0.9,-0.93 2.12,-1.4 3.34,-1.4 1.22,0 2.45,0.47 3.34,1.4 v 54.74 c 0,9.54 1.3,18.98 3.84,28.08 2.54,9.09 6.3,17.85 11.22,26.01 6.88,11.39 15.84,21.36 26.45,29.38 l 61.83,46.81 z"
       id="path19" />
    <path
       class="cls-4"
       d="m 454.52,541.59 -61.83,-46.81 c -10.6,-8.02 -19.57,-17.99 -26.45,-29.38 -4.92,-8.16 -8.68,-16.92 -11.22,-26.01 -2.54,-9.1 -3.84,-18.54 -3.84,-28.08 v -54.74 c 0.28,0.28 0.53,0.6 0.74,0.96 l 42.65,73.87 59.95,103.81 c 1.22,2.11 1.07,4.5 0,6.36 z"
       id="path20"
       style="fill:url(#linear-gradient-2)" />
    <path
       class="cls-6"
       d="m 454.34,541.87 c -1.1,1.74 -3.02,2.95 -5.38,2.95 H 246.7 c -2.34,0 -4.27,-1.21 -5.38,-2.94 l 58.76,-40.17 c 0.06,-0.04 0.13,-0.08 0.18,-0.13 14.02,-9.53 30.6,-14.63 47.56,-14.63 8.53,0 16.94,1.28 24.99,3.78 8,2.46 15.63,6.12 22.62,10.9 0.04,0.03 0.09,0.05 0.13,0.08 l 58.76,40.16 z"
       id="path21"
       style="fill:url(#linear-gradient-3)" />
    <path
       class="cls-7"
       d="m 344.5,356.58 v 54.72 c 0,19.07 -5.21,37.78 -15.07,54.11 -3.43,5.69 -7.39,11.04 -11.82,15.95 -4.42,4.91 -9.3,9.4 -14.59,13.41 -0.02,0 -0.03,0.03 -0.04,0.03 l -61.82,46.79 c -1.07,-1.87 -1.22,-4.25 0,-6.36 l 59.95,-103.83 42.64,-73.86 c 0.21,-0.36 0.46,-0.69 0.75,-0.96 z"
       id="path22"
       style="fill:url(#linear-gradient-4)" />
  </g>
</svg>
